<?xml version="1.0" standalone="no"?>
<!DOCTYPE svg PUBLIC "-//W3C//DTD SVG 20010904//EN"
 "http://www.w3.org/TR/2001/REC-SVG-20010904/DTD/svg10.dtd">
<svg version="1.0" xmlns="http://www.w3.org/2000/svg"
 width="1404.000000pt" height="1872.000000pt" viewBox="0 0 1404.000000 1872.000000"
 preserveAspectRatio="xMidYMid meet">

<g transform="translate(0.000000,1872.000000) scale(0.100000,-0.100000)"
fill="#000000" stroke="none">
<path d="M3470 18448 c-19 -21 -20 -33 -20 -439 0 -406 1 -417 21 -443 l20
-26 440 0 c426 0 440 1 459 20 19 19 20 33 20 448 0 403 -1 430 -18 445 -17
15 -63 17 -460 17 -441 0 -441 0 -462 -22z m912 -5 c17 -15 18 -42 18 -435 0
-405 -1 -419 -20 -438 -19 -19 -33 -20 -447 -20 -383 0 -428 2 -445 17 -17 15
-18 42 -18 439 0 371 2 424 16 438 14 14 68 16 446 16 387 0 433 -2 450 -17z"/>
<path d="M4456 18448 c-14 -19 -16 -79 -16 -443 l0 -422 23 -21 c23 -22 25
-22 463 -22 382 0 442 2 462 16 l22 15 0 434 c0 381 -2 435 -16 449 -14 14
-70 16 -469 16 l-454 0 -15 -22z m925 2 c18 -10 19 -26 19 -440 l0 -429 -22
-15 c-20 -14 -80 -16 -454 -16 l-433 0 -20 26 c-20 26 -21 37 -21 435 0 396 1
410 20 429 19 19 33 20 456 20 281 0 442 -4 455 -10z"/>
<path d="M5456 18448 c-14 -19 -16 -79 -16 -443 l0 -422 23 -21 c23 -22 25
-22 460 -22 424 0 438 1 457 20 19 19 20 33 20 448 0 403 -1 430 -18 445 -17
15 -64 17 -465 17 l-446 0 -15 -22z m916 -5 c17 -15 18 -42 18 -435 0 -405 -1
-419 -20 -438 -19 -19 -33 -20 -449 -20 l-430 0 -20 26 c-20 26 -21 37 -21
435 0 396 1 410 20 429 19 19 33 20 452 20 387 0 433 -2 450 -17z"/>
<path d="M6446 18448 c-14 -19 -16 -79 -16 -443 l0 -422 23 -21 c23 -22 25
-22 463 -22 382 0 442 2 462 16 l22 15 0 433 c0 407 -1 434 -18 449 -17 15
-64 17 -470 17 l-451 0 -15 -22z m926 -5 c17 -15 18 -42 18 -439 l0 -423 -22
-15 c-20 -14 -80 -16 -453 -16 -420 0 -432 1 -453 20 -22 21 -22 22 -22 433 0
357 2 416 16 435 l15 22 441 0 c397 0 443 -2 460 -17z"/>
<path d="M7446 18448 c-14 -19 -16 -79 -16 -443 l0 -422 23 -21 c23 -22 25
-22 460 -22 424 0 438 1 457 20 19 19 20 33 20 443 0 366 -2 426 -16 445 l-15
22 -449 0 -449 0 -15 -22z m916 -5 c17 -15 18 -42 18 -435 0 -405 -1 -419 -20
-438 -19 -19 -33 -20 -447 -20 -424 0 -427 0 -450 22 l-23 21 0 414 c0 400 1
414 20 433 19 19 33 20 452 20 387 0 433 -2 450 -17z"/>
<path d="M3376 17488 c-14 -19 -16 -79 -16 -448 0 -369 2 -429 16 -448 l15
-22 445 0 c431 0 445 1 464 20 19 19 20 33 20 448 0 371 -2 431 -16 450 l-15
22 -449 0 -449 0 -15 -22z m918 -10 c14 -19 16 -78 16 -438 0 -360 -2 -419
-16 -438 l-15 -22 -439 0 -439 0 -15 22 c-14 19 -16 78 -16 438 0 360 2 419
16 438 l15 22 439 0 439 0 15 -22z"/>
<path d="M4367 17492 c-15 -17 -17 -63 -17 -454 0 -409 1 -436 18 -451 17 -15
64 -17 465 -17 434 0 448 1 467 20 19 19 20 33 20 448 0 371 -2 431 -16 450
l-15 22 -453 0 c-426 0 -454 -1 -469 -18z m927 -14 c14 -19 16 -78 16 -438 0
-360 -2 -419 -16 -438 l-15 -22 -441 0 c-397 0 -443 2 -460 17 -17 15 -18 42
-18 441 0 382 2 427 17 444 15 17 43 18 459 18 l443 0 15 -22z"/>
<path d="M5366 17488 c-14 -19 -16 -79 -16 -448 0 -369 2 -429 16 -448 l15
-22 445 0 c431 0 445 1 464 20 19 19 20 33 20 450 0 417 -1 431 -20 450 -19
19 -33 20 -464 20 l-445 0 -15 -22z m910 -2 c18 -14 19 -32 22 -436 2 -369 1
-426 -13 -446 l-15 -24 -440 0 -439 0 -15 22 c-14 19 -16 78 -16 438 0 360 2
419 16 438 l15 22 433 0 c357 0 436 -2 452 -14z"/>
<path d="M6357 17492 c-15 -17 -17 -63 -17 -454 0 -409 1 -436 18 -451 17 -15
64 -17 465 -17 434 0 448 1 467 20 19 19 20 33 20 448 0 371 -2 431 -16 450
l-15 22 -453 0 c-426 0 -454 -1 -469 -18z m924 -9 c11 -13 14 -96 14 -443 0
-347 -3 -430 -14 -443 -12 -15 -57 -17 -457 -17 -389 0 -444 2 -458 16 -14 14
-16 67 -16 441 0 383 2 428 17 445 15 17 43 18 458 18 399 0 444 -2 456 -17z"/>
<path d="M7357 17492 c-15 -17 -17 -63 -17 -454 0 -409 1 -436 18 -451 17 -15
63 -17 460 -17 429 0 443 1 462 20 19 19 20 33 20 448 0 417 -1 429 -20 450
-21 22 -21 22 -464 22 -416 0 -444 -1 -459 -18z m907 -8 c14 -14 16 -68 16
-448 0 -323 -3 -435 -12 -444 -9 -9 -123 -12 -449 -12 -384 0 -439 2 -453 16
-14 14 -16 67 -16 437 0 366 2 426 16 445 l15 22 434 0 c381 0 435 -2 449 -16z"/>
<path d="M3292 16524 l-22 -15 0 -438 c0 -326 3 -440 12 -449 9 -9 125 -12
459 -12 394 0 449 2 463 16 14 14 16 68 16 449 l0 434 -22 15 c-20 14 -80 16
-453 16 -373 0 -433 -2 -453 -16z m896 -10 l22 -15 0 -422 c-1 -335 -3 -426
-14 -439 -12 -17 -46 -18 -453 -18 -328 0 -442 3 -451 12 -9 9 -12 120 -12
439 l0 428 22 15 c19 14 79 16 443 16 364 0 424 -2 443 -16z"/>
<path d="M4272 16517 c-22 -23 -22 -26 -22 -443 0 -364 2 -423 16 -442 l15
-22 454 0 454 0 21 22 c19 21 20 33 20 440 l0 419 -25 24 -24 25 -444 0 -444
0 -21 -23z m916 -3 l22 -15 0 -420 c0 -271 -4 -427 -10 -440 -10 -18 -26 -19
-460 -19 l-449 0 -15 22 c-14 19 -16 78 -16 434 l0 413 26 20 c26 21 37 21
453 21 370 0 430 -2 449 -16z"/>
<path d="M5274 16515 l-25 -25 3 -423 c2 -342 6 -427 17 -440 12 -15 57 -17
461 -17 420 0 448 1 463 18 15 17 17 63 17 450 l0 431 -22 15 c-20 14 -80 16
-456 16 l-433 0 -25 -25z m906 -5 c19 -19 20 -33 20 -437 0 -373 -2 -418 -17
-435 -15 -17 -42 -18 -453 -18 -326 0 -439 3 -448 12 -9 9 -12 120 -12 439 l0
428 22 15 c19 14 79 16 445 16 410 0 424 -1 443 -20z"/>
<path d="M6262 16517 c-22 -23 -22 -26 -22 -443 0 -364 2 -423 16 -442 l15
-22 448 0 c421 0 449 1 464 18 15 17 17 62 17 445 0 426 0 426 -22 447 -21 19
-33 20 -458 20 l-437 0 -21 -23z m914 -11 c12 -16 14 -92 14 -435 0 -372 -2
-416 -17 -433 -15 -17 -42 -18 -454 -18 l-438 0 -15 22 c-14 19 -16 78 -16
434 l0 413 27 21 c26 20 32 21 456 18 411 -3 429 -4 443 -22z"/>
<path d="M7250 16520 c-19 -19 -20 -33 -20 -448 0 -403 1 -430 18 -445 17 -15
64 -17 469 -17 423 0 451 1 466 18 15 17 17 62 17 445 0 414 -1 428 -20 447
-19 19 -33 20 -465 20 -432 0 -446 -1 -465 -20z m920 -10 c19 -19 20 -33 20
-437 0 -373 -2 -418 -17 -435 -15 -17 -43 -18 -456 -18 -396 0 -442 2 -459 17
-17 15 -18 42 -18 435 0 405 1 419 20 438 19 19 33 20 455 20 422 0 436 -1
455 -20z"/>
<path d="M3192 15557 c-22 -23 -22 -26 -22 -455 0 -431 0 -431 22 -452 21 -19
33 -20 458 -20 l437 0 21 23 c22 23 22 26 22 454 l0 432 -26 20 c-26 21 -37
21 -459 21 l-432 0 -21 -23z m899 -6 l24 -19 0 -427 0 -427 -24 -19 c-22 -18
-45 -19 -441 -19 -407 0 -418 1 -444 21 l-26 20 0 424 c0 424 0 424 22 445 21
19 33 20 444 20 400 0 423 -1 445 -19z"/>
<path d="M4180 15560 c-19 -19 -20 -33 -20 -455 0 -422 1 -436 20 -455 19 -19
33 -20 455 -20 l436 0 24 25 25 24 0 426 0 426 -25 24 -24 25 -436 0 c-422 0
-436 -1 -455 -20z m898 -6 l22 -15 0 -434 0 -434 -22 -15 c-19 -14 -79 -16
-445 -16 -410 0 -424 1 -443 20 -19 19 -20 33 -20 445 0 412 1 426 20 445 19
19 33 20 443 20 366 0 426 -2 445 -16z"/>
<path d="M5165 15555 l-25 -24 0 -426 0 -426 25 -24 24 -25 441 0 441 0 24 25
25 24 0 426 0 426 -25 24 -24 25 -441 0 -441 0 -24 -25z m913 -1 l22 -15 0
-434 0 -434 -22 -15 c-19 -14 -79 -16 -448 -16 -369 0 -429 2 -448 16 l-22 15
0 430 c0 416 1 430 20 449 19 19 33 20 448 20 371 0 431 -2 450 -16z"/>
<path d="M6169 15561 l-24 -19 -3 -431 -3 -431 25 -25 25 -25 436 0 436 0 24
25 25 24 0 426 0 426 -25 24 -24 25 -434 0 c-413 0 -436 -1 -458 -19z m899 -7
l22 -15 0 -434 0 -434 -22 -15 c-19 -14 -79 -16 -445 -16 -410 0 -424 1 -443
20 -19 19 -20 33 -20 445 0 412 1 426 20 445 19 19 33 20 443 20 366 0 426 -2
445 -16z"/>
<path d="M7155 15555 l-25 -24 0 -426 0 -426 25 -24 24 -25 441 0 441 0 24 25
25 24 0 426 0 426 -25 24 -24 25 -441 0 -441 0 -24 -25z m913 -1 l22 -15 0
-434 0 -434 -22 -15 c-19 -14 -79 -16 -448 -16 -369 0 -429 2 -448 16 l-22 15
0 434 0 434 22 15 c19 14 79 16 448 16 369 0 429 -2 448 -16z"/>
<path d="M3287 14582 c-15 -17 -17 -63 -17 -450 l0 -431 22 -15 c20 -14 80
-16 453 -16 373 0 433 2 453 16 l22 15 0 433 c0 407 -1 434 -18 449 -17 15
-63 17 -459 17 -413 0 -441 -1 -456 -18z m905 -9 c17 -15 18 -42 18 -438 0
-381 -2 -424 -17 -436 -13 -11 -97 -14 -448 -14 -351 0 -435 3 -448 14 -15 12
-17 56 -17 442 0 397 1 429 18 438 11 7 173 11 446 11 386 0 431 -2 448 -17z"/>
<path d="M4266 14578 c-14 -19 -16 -79 -16 -443 0 -410 1 -422 20 -443 21 -22
21 -22 466 -22 l445 0 24 25 25 24 0 411 c0 409 -2 441 -34 462 -6 4 -214 8
-463 8 l-452 0 -15 -22z m928 -4 c14 -14 16 -67 16 -438 0 -382 -2 -425 -17
-437 -13 -11 -100 -15 -448 -17 -426 -3 -432 -2 -458 18 l-27 21 0 413 c0 356
2 415 16 434 l15 22 444 0 c390 0 445 -2 459 -16z"/>
<path d="M5274 14586 c-18 -14 -19 -32 -22 -440 l-3 -426 25 -25 25 -25 433 0
c376 0 436 2 456 16 l22 15 0 433 c0 407 -1 434 -18 449 -17 15 -63 17 -458
17 -364 0 -444 -2 -460 -14z m908 -13 c17 -15 18 -42 18 -433 0 -344 -2 -420
-14 -436 -14 -18 -32 -19 -441 -22 -373 -2 -431 -1 -451 13 l-24 15 0 430 c0
398 1 430 18 439 11 7 173 11 446 11 386 0 431 -2 448 -17z"/>
<path d="M6256 14578 c-14 -19 -16 -79 -16 -443 0 -410 1 -422 20 -443 21 -22
21 -22 460 -22 427 0 441 1 460 20 19 19 20 33 20 448 0 403 -1 430 -18 445
-17 15 -64 17 -465 17 l-446 0 -15 -22z m916 -5 c17 -15 18 -42 18 -433 0
-344 -2 -420 -14 -436 -14 -18 -32 -19 -443 -22 -424 -3 -430 -2 -456 18 l-27
21 0 413 c0 356 2 415 16 434 l15 22 436 0 c392 0 438 -2 455 -17z"/>
<path d="M7247 14582 c-15 -17 -17 -62 -17 -445 0 -414 1 -428 20 -447 19 -19
33 -20 465 -20 432 0 446 1 465 20 19 19 20 33 20 448 0 403 -1 430 -18 445
-17 15 -64 17 -469 17 -423 0 -451 -1 -466 -18z m925 -9 c17 -15 18 -42 18
-433 0 -344 -2 -420 -14 -436 -14 -18 -30 -19 -461 -19 -431 0 -447 1 -461 19
-12 16 -14 92 -14 435 0 372 2 416 17 433 15 17 43 18 456 18 396 0 442 -2
459 -17z"/>
<path d="M3380 13620 c-19 -19 -20 -33 -20 -448 0 -371 2 -431 16 -450 l15
-22 449 0 449 0 15 22 c14 19 16 79 16 450 0 415 -1 429 -20 448 -19 19 -33
20 -460 20 -427 0 -441 -1 -460 -20z m910 -10 c19 -19 20 -33 20 -440 0 -407
-1 -421 -20 -440 -19 -19 -33 -20 -454 -20 l-435 0 -15 22 c-14 19 -16 78 -16
440 0 405 1 419 20 438 19 19 33 20 450 20 417 0 431 -1 450 -20z"/>
<path d="M4367 13622 c-15 -17 -17 -63 -17 -454 0 -409 1 -436 18 -451 17 -15
64 -17 470 -17 l451 0 15 22 c14 19 16 79 16 450 0 415 -1 429 -20 448 -19 19
-33 20 -468 20 -422 0 -450 -1 -465 -18z m923 -12 c19 -19 20 -33 20 -440 0
-407 -1 -421 -20 -440 -19 -19 -33 -20 -457 -20 -392 0 -438 2 -455 17 -17 15
-18 42 -18 441 0 382 2 427 17 444 15 17 42 18 455 18 425 0 439 -1 458 -20z"/>
<path d="M5366 13618 c-14 -19 -16 -79 -16 -448 0 -369 2 -429 16 -448 l15
-22 449 0 449 0 15 22 c14 19 16 79 16 450 0 415 -1 429 -20 448 -19 19 -33
20 -464 20 l-445 0 -15 -22z m914 -8 c19 -19 20 -33 20 -440 0 -407 -1 -421
-20 -440 -19 -19 -33 -20 -452 -20 -387 0 -433 2 -450 17 -17 15 -18 42 -18
441 0 382 2 427 17 444 15 17 42 18 450 18 420 0 434 -1 453 -20z"/>
<path d="M6357 13622 c-15 -17 -17 -63 -17 -454 0 -409 1 -436 18 -451 17 -15
64 -17 470 -17 l451 0 15 22 c14 19 16 79 16 450 0 415 -1 429 -20 448 -19 19
-33 20 -468 20 -422 0 -450 -1 -465 -18z m919 -6 c18 -14 19 -32 22 -440 3
-416 2 -426 -18 -446 -19 -19 -31 -20 -459 -20 -386 0 -441 2 -455 16 -14 14
-16 68 -16 444 0 376 2 430 16 444 14 14 69 16 453 16 362 0 441 -2 457 -14z"/>
<path d="M9343 13158 c-20 -11 -79 -45 -132 -75 -53 -31 -253 -147 -446 -258
-565 -326 -685 -396 -700 -412 -8 -8 -15 -26 -15 -40 0 -28 9 -45 175 -333
272 -472 266 -462 309 -462 13 0 109 49 212 109 169 98 404 235 488 283 236
135 560 322 593 343 71 45 70 52 -55 270 -205 358 -324 562 -333 573 -17 21
-59 22 -96 2z m85 -10 c9 -12 121 -203 180 -308 13 -25 28 -49 32 -55 4 -5 18
-30 32 -55 14 -25 62 -109 107 -187 60 -104 82 -149 79 -170 -3 -30 16 -18
-413 -266 -104 -61 -320 -185 -480 -277 -159 -92 -314 -181 -344 -199 -57 -34
-99 -46 -117 -34 -13 10 -49 70 -199 333 -65 113 -146 253 -181 313 -63 106
-76 145 -51 165 6 5 118 70 247 144 129 74 350 201 490 283 140 81 273 158
295 171 22 12 90 52 150 87 109 65 153 79 173 55z"/>
<path d="M3475 12645 l-25 -24 0 -415 c0 -228 3 -422 6 -431 17 -43 41 -45
482 -45 409 0 420 1 446 21 l26 20 0 430 c0 416 -1 430 -20 449 -19 19 -33 20
-455 20 l-436 0 -24 -25z m905 -5 c19 -19 20 -33 20 -439 0 -368 -2 -421 -16
-435 -14 -14 -68 -16 -449 -16 -381 0 -435 2 -449 16 -14 14 -16 67 -16 439
l0 424 22 15 c19 14 79 16 445 16 410 0 424 -1 443 -20z"/>
<path d="M4462 12647 c-22 -23 -22 -26 -22 -444 0 -399 1 -422 19 -444 l19
-24 439 -3 c434 -3 440 -2 466 18 l27 21 0 434 0 434 -22 15 c-20 14 -80 16
-463 16 l-442 0 -21 -23z m916 -3 l22 -15 0 -429 c0 -414 -1 -430 -19 -440
-13 -6 -174 -10 -455 -10 -423 0 -437 1 -456 20 -19 19 -20 33 -20 430 l0 411
25 24 24 25 428 0 c372 0 431 -2 451 -16z"/>
<path d="M5461 12644 c-20 -26 -21 -37 -21 -440 0 -227 3 -420 6 -429 17 -43
41 -45 482 -45 409 0 420 1 446 21 l26 20 0 430 c0 416 -1 430 -20 449 -19 19
-33 20 -459 20 l-440 0 -20 -26z m909 -4 c19 -19 20 -33 20 -439 0 -368 -2
-421 -16 -435 -14 -14 -68 -16 -450 -16 -421 0 -435 1 -454 20 -19 19 -20 33
-20 430 l0 411 25 24 24 25 426 0 c412 0 426 -1 445 -20z"/>
<path d="M7940 12306 c-19 -7 -69 -32 -110 -57 -41 -25 -149 -88 -239 -140
-129 -74 -166 -100 -176 -124 -13 -30 -11 -187 11 -798 l7 -197 46 -77 c41
-68 55 -82 121 -123 234 -144 690 -420 717 -434 46 -23 71 -20 135 18 31 19
76 46 100 59 197 110 349 202 365 219 12 13 18 35 17 62 0 34 -20 75 -114 236
-62 107 -152 263 -200 345 -48 83 -121 209 -162 280 -41 72 -137 238 -213 370
-76 132 -154 265 -174 294 -44 67 -80 85 -131 67z m92 -34 c15 -16 235 -391
606 -1037 85 -148 183 -318 218 -378 69 -116 81 -169 47 -199 -20 -18 -289
-176 -489 -289 -21 -11 -46 -18 -58 -15 -12 3 -201 115 -421 250 -399 243
-400 244 -436 303 -20 32 -41 74 -47 93 -6 19 -13 141 -16 270 -3 129 -9 341
-12 470 -5 190 -3 238 7 252 8 9 129 83 269 163 216 124 260 145 285 140 16
-3 38 -13 47 -23z"/>
<path d="M9863 12300 c-12 -5 -136 -75 -275 -156 -139 -81 -390 -226 -558
-322 -496 -284 -480 -274 -480 -319 0 -13 37 -88 81 -166 243 -423 344 -594
361 -609 32 -28 56 -22 168 43 58 34 256 148 440 254 738 425 765 441 774 468
11 30 2 49 -164 332 -64 110 -150 258 -190 328 -87 152 -104 168 -157 147z
m69 -27 c9 -10 71 -115 138 -233 68 -118 161 -280 207 -359 65 -110 83 -150
81 -174 -3 -29 -16 -38 -193 -140 -198 -113 -582 -336 -720 -417 -331 -195
-405 -233 -429 -222 -15 6 -55 66 -111 164 -49 84 -145 250 -214 368 -83 143
-126 225 -126 245 0 32 -16 21 265 185 69 40 174 102 233 136 59 35 110 64
113 64 3 0 18 8 32 18 15 11 52 33 82 49 66 36 490 281 540 311 42 26 82 28
102 5z"/>
<path d="M10210 11348 c-213 -124 -554 -322 -865 -500 -143 -83 -268 -159
-277 -170 -21 -24 -23 -54 -4 -88 7 -14 73 -128 146 -255 73 -126 141 -243
150 -260 129 -223 137 -234 171 -235 14 0 379 205 834 470 88 51 180 105 206
119 295 169 309 178 309 214 0 12 -52 112 -116 222 -64 110 -161 279 -216 375
-55 96 -107 181 -116 188 -30 23 -68 10 -222 -80z m212 70 c14 -11 158 -256
396 -675 63 -109 61 -122 -26 -171 -31 -18 -75 -43 -97 -56 -22 -13 -188 -109
-370 -213 -513 -295 -597 -343 -645 -374 -94 -58 -142 -78 -165 -67 -20 9 -53
61 -165 258 -20 36 -79 137 -130 225 -155 266 -164 284 -152 310 6 12 48 44
94 71 46 26 121 70 168 97 47 27 204 118 350 202 146 84 362 209 480 278 118
69 222 126 231 126 8 1 22 -5 31 -11z"/>
<path d="M9486 8859 c-14 -11 -26 -24 -26 -28 0 -4 -67 -122 -148 -262 -82
-140 -177 -305 -212 -368 -61 -108 -63 -114 -49 -140 10 -17 83 -65 224 -147
116 -66 282 -162 370 -214 636 -369 731 -421 759 -414 30 7 39 21 134 184 33
58 121 211 196 340 75 129 140 246 143 259 5 20 -1 31 -30 56 -19 17 -48 37
-64 45 -15 8 -64 36 -108 61 -44 26 -96 56 -115 67 -19 11 -91 52 -160 92
-477 277 -854 490 -869 490 -10 0 -30 -9 -45 -21z m423 -201 c201 -116 483
-279 626 -361 292 -167 325 -189 325 -218 0 -11 -64 -131 -141 -267 -237 -414
-290 -502 -311 -513 -21 -11 -34 -4 -623 336 -121 70 -240 139 -265 152 -25
14 -65 38 -90 53 -25 15 -110 65 -190 110 -165 94 -180 105 -180 134 0 12 45
100 101 196 55 96 148 258 206 360 111 193 137 230 161 230 8 0 180 -95 381
-212z"/>
<path d="M8200 8287 c-63 -40 -176 -110 -250 -156 -349 -217 -426 -265 -445
-282 -11 -10 -37 -49 -57 -86 l-36 -68 -11 -315 c-16 -473 -15 -650 7 -677 15
-18 338 -212 480 -288 84 -45 121 -31 179 63 44 73 476 820 715 1237 158 275
159 279 120 334 -10 13 -130 88 -267 167 -193 111 -258 143 -285 143 -26 0
-65 -19 -150 -72z m214 40 c375 -216 454 -263 474 -284 12 -13 22 -36 22 -51
0 -15 -27 -74 -61 -132 -34 -58 -156 -269 -271 -470 -116 -201 -278 -482 -361
-625 -82 -143 -158 -276 -169 -295 -54 -94 -75 -89 -376 87 -153 89 -255 155
-263 170 -10 18 -10 95 0 375 6 194 11 405 11 468 l0 115 44 76 44 75 319 199
c466 291 505 315 527 315 10 0 38 -11 60 -23z"/>
<path d="M9009 8008 c-20 -7 -70 -85 -244 -385 -144 -250 -218 -387 -218 -406
0 -44 -50 -11 503 -330 162 -93 309 -177 325 -187 17 -9 102 -59 190 -110 310
-180 308 -179 340 -172 14 2 32 14 39 26 8 11 106 182 220 378 159 277 206
366 206 392 0 38 -2 39 -265 191 -476 275 -628 362 -675 388 -30 16 -59 33
-65 37 -16 13 -302 177 -317 182 -7 3 -25 1 -39 -4z m256 -134 c121 -70 234
-134 250 -144 17 -9 102 -59 190 -110 88 -51 269 -156 403 -232 261 -150 273
-161 240 -217 -66 -115 -303 -527 -351 -611 -63 -110 -80 -130 -108 -130 -14
0 -192 99 -574 320 -392 226 -733 424 -742 432 -19 16 -15 59 8 98 35 57 309
530 342 590 56 102 79 130 107 130 9 0 114 -57 235 -126z"/>
<path d="M8492 7133 c-12 -10 -103 -160 -203 -333 -251 -434 -251 -434 -243
-464 7 -28 26 -40 464 -293 712 -412 848 -488 875 -491 40 -5 45 2 153 188 49
85 144 249 211 364 134 231 143 259 94 294 -16 11 -140 83 -278 162 -137 78
-270 155 -295 170 -159 97 -729 420 -742 420 -9 0 -25 -8 -36 -17z m156 -60
c132 -77 604 -349 672 -386 30 -16 60 -33 65 -38 11 -8 230 -135 315 -182 116
-64 160 -97 160 -119 0 -11 -78 -156 -172 -321 -95 -166 -186 -324 -202 -351
-43 -76 -64 -104 -87 -111 -22 -7 -61 14 -463 248 -131 76 -257 149 -280 162
-22 13 -165 95 -316 182 -267 153 -275 159 -278 191 -2 18 1 39 6 45 5 7 101
170 212 362 111 193 207 356 212 363 20 23 60 12 156 -45z"/>
<path d="M3475 6965 l-25 -24 0 -421 0 -421 25 -25 25 -25 441 3 c423 3 441 4
455 22 12 16 14 94 14 448 0 427 0 427 -22 448 -21 19 -33 20 -455 20 l-434 0
-24 -25z m909 -11 c14 -13 16 -66 16 -430 0 -267 -4 -422 -10 -435 -10 -18
-26 -19 -453 -19 -331 0 -446 3 -455 12 -17 17 -17 859 0 876 9 9 123 12 449
12 384 0 439 -2 453 -16z"/>
<path d="M4465 6965 l-25 -24 0 -421 0 -421 25 -25 25 -25 443 3 c359 2 447 6
460 17 15 12 17 56 17 447 0 421 -1 435 -20 454 -19 19 -33 20 -460 20 l-441
0 -24 -25z m916 -5 c18 -10 19 -26 19 -438 0 -320 -3 -431 -12 -440 -9 -9
-125 -12 -459 -12 l-448 0 -15 22 c-14 19 -16 77 -16 428 0 351 2 409 16 428
l15 22 440 0 c284 0 447 -4 460 -10z"/>
<path d="M5465 6965 l-25 -24 0 -421 0 -421 25 -24 24 -25 429 0 c419 0 430 0
456 21 l26 20 0 429 0 429 -26 20 c-26 21 -37 21 -456 21 l-429 0 -24 -25z
m909 -11 c14 -13 16 -66 16 -430 0 -267 -4 -422 -10 -435 -10 -18 -26 -19
-455 -19 l-444 0 -15 22 c-14 19 -16 77 -16 428 0 351 2 409 16 428 l15 22
439 0 c385 0 440 -2 454 -16z"/>
<path d="M3386 6009 l-26 -20 0 -435 c0 -421 1 -435 20 -454 19 -19 33 -20
460 -20 439 0 439 0 460 22 19 21 20 33 20 450 l0 429 -25 24 -24 25 -429 0
c-419 0 -430 0 -456 -21z m908 -21 c14 -19 16 -78 16 -440 0 -405 -1 -419 -20
-438 -19 -19 -33 -20 -450 -20 -417 0 -431 1 -450 20 -19 19 -20 33 -20 442 0
378 2 423 17 440 15 17 42 18 454 18 l438 0 15 -22z"/>
<path d="M4372 6010 c-22 -21 -22 -21 -22 -460 l0 -439 22 -15 c20 -14 81 -16
465 -16 430 0 444 1 463 20 19 19 20 33 20 450 l0 431 -25 24 -24 25 -439 0
c-427 0 -439 -1 -460 -20z m922 -22 c14 -19 16 -78 16 -440 0 -405 -1 -419
-20 -438 -19 -19 -33 -20 -453 -20 -375 0 -435 2 -455 16 l-22 15 0 434 c0
403 1 435 18 444 11 7 177 11 459 11 l442 0 15 -22z"/>
<path d="M5385 6018 c-11 -6 -23 -16 -27 -22 -4 -6 -8 -206 -8 -443 0 -420 1
-434 20 -453 19 -19 33 -20 460 -20 439 0 439 0 460 22 19 21 20 33 20 450 l0
429 -25 24 -24 25 -428 0 c-300 -1 -434 -4 -448 -12z m899 -30 c14 -19 16 -78
16 -434 0 -401 -1 -412 -21 -438 l-20 -26 -430 0 c-416 0 -430 1 -449 20 -19
19 -20 33 -20 444 0 373 2 426 16 440 14 14 69 16 454 16 l439 0 15 -22z"/>
<path d="M6362 6010 c-22 -21 -22 -21 -22 -460 l0 -439 22 -15 c20 -14 81 -16
465 -16 430 0 444 1 463 20 19 19 20 33 20 450 l0 431 -25 24 -24 25 -439 0
c-427 0 -439 -1 -460 -20z m923 -24 c14 -20 15 -77 13 -446 -3 -404 -4 -422
-22 -436 -16 -12 -94 -14 -451 -14 -373 0 -433 2 -453 16 l-22 15 0 434 c0
403 1 435 18 444 11 7 178 11 459 11 l443 0 15 -24z"/>
<path d="M3287 5032 c-15 -17 -17 -62 -17 -449 0 -404 1 -431 18 -446 17 -15
63 -17 453 -17 377 0 437 2 457 16 l22 15 0 434 0 434 -22 15 c-20 14 -80 16
-459 16 -410 0 -437 -1 -452 -18z m901 -8 l22 -15 0 -424 0 -424 -22 -15 c-19
-14 -79 -16 -450 -16 -374 0 -428 2 -442 16 -14 14 -16 67 -16 436 0 378 2
423 17 440 15 17 42 18 442 18 370 0 430 -2 449 -16z"/>
<path d="M4270 5028 c-19 -21 -20 -33 -20 -445 0 -410 1 -424 20 -443 19 -19
33 -20 468 -20 246 0 452 4 458 8 32 21 34 53 34 460 0 399 -1 410 -21 436
l-20 26 -449 0 -449 0 -21 -22z m918 -4 l22 -15 0 -421 c0 -378 -2 -423 -17
-440 -15 -17 -42 -18 -454 -18 -438 0 -438 0 -459 22 -19 21 -20 33 -20 433 0
400 1 412 20 433 21 22 21 22 453 22 375 0 435 -2 455 -16z"/>
<path d="M5271 5024 c-20 -26 -21 -37 -21 -439 0 -402 1 -413 21 -439 l20 -26
438 0 c379 0 439 2 459 16 l22 15 0 434 0 434 -22 15 c-20 14 -80 16 -459 16
l-438 0 -20 -26z m907 0 l22 -15 0 -424 0 -424 -22 -15 c-19 -14 -79 -16 -450
-16 -374 0 -428 2 -442 16 -14 14 -16 67 -16 436 0 378 2 423 17 440 15 17 42
18 442 18 370 0 430 -2 449 -16z"/>
<path d="M6260 5030 c-19 -19 -20 -33 -20 -445 0 -412 1 -426 20 -445 19 -19
33 -20 458 -20 380 0 440 2 460 16 l22 15 0 434 0 434 -22 15 c-20 14 -80 16
-460 16 -425 0 -439 -1 -458 -20z m910 -10 c19 -19 20 -33 20 -435 0 -402 -1
-416 -20 -435 -19 -19 -33 -20 -450 -20 -417 0 -431 1 -450 20 -19 19 -20 33
-20 433 0 402 1 414 20 435 21 22 21 22 450 22 417 0 431 -1 450 -20z"/>
<path d="M7252 5034 l-22 -15 0 -434 0 -434 22 -15 c20 -14 80 -16 463 -16
383 0 443 2 463 16 l22 15 0 434 0 434 -22 15 c-20 14 -80 16 -463 16 -383 0
-443 -2 -463 -16z m918 -14 c19 -19 20 -33 20 -435 0 -402 -1 -416 -20 -435
-19 -19 -33 -20 -455 -20 -422 0 -436 1 -455 20 -19 19 -20 33 -20 435 0 402
1 416 20 435 19 19 33 20 455 20 422 0 436 -1 455 -20z"/>
<path d="M3190 4070 c-19 -19 -20 -33 -20 -453 l0 -434 23 -21 c23 -22 25 -22
456 -22 l432 0 24 25 25 24 0 431 c0 417 -1 431 -20 450 -19 19 -33 20 -460
20 -427 0 -441 -1 -460 -20z m906 -4 c18 -14 19 -30 19 -446 l0 -432 -24 -19
c-22 -18 -45 -19 -441 -19 -407 0 -418 1 -444 21 l-26 20 0 425 c0 411 1 425
20 444 19 19 33 20 448 20 354 0 432 -2 448 -14z"/>
<path d="M4180 4070 c-19 -19 -20 -33 -20 -455 0 -434 0 -434 22 -455 21 -19
33 -20 455 -20 l434 0 24 25 25 24 0 426 0 426 -25 24 -24 25 -436 0 c-422 0
-436 -1 -455 -20z m904 -6 c14 -14 16 -68 16 -449 l0 -434 -22 -15 c-19 -14
-78 -16 -436 -16 -411 0 -443 2 -464 34 -4 6 -8 201 -8 434 0 409 1 423 20
442 19 19 33 20 449 20 377 0 431 -2 445 -16z"/>
<path d="M5164 4065 l-25 -25 3 -431 3 -431 24 -19 c22 -18 45 -19 463 -19
l439 0 24 25 25 24 0 429 0 429 -23 21 c-23 22 -25 22 -466 22 l-442 0 -25
-25z m917 5 c18 -10 19 -26 19 -450 l0 -439 -22 -15 c-19 -14 -79 -16 -450
-16 -415 0 -429 1 -448 20 -19 19 -20 33 -20 449 l0 430 22 15 c20 14 79 16
451 16 276 0 435 -4 448 -10z"/>
<path d="M6165 4065 l-25 -24 0 -416 c0 -426 1 -443 39 -472 12 -9 124 -12
447 -13 410 0 433 1 455 19 l24 19 3 431 3 431 -25 25 -25 25 -436 0 -436 0
-24 -25z m903 -1 l22 -15 0 -434 0 -435 -24 -15 c-20 -14 -78 -15 -451 -13
-409 3 -427 4 -441 22 -12 16 -14 94 -14 447 l0 428 22 15 c19 14 79 16 443
16 364 0 424 -2 443 -16z"/>
<path d="M7155 4065 l-25 -24 0 -426 0 -426 25 -24 24 -25 441 0 441 0 24 25
25 24 0 424 c0 414 0 425 -21 451 l-20 26 -445 0 -445 0 -24 -25z m925 -5 c6
-9 10 -192 10 -447 l0 -432 -22 -15 c-19 -14 -79 -16 -448 -16 -369 0 -429 2
-448 16 l-22 15 0 434 0 434 23 16 c19 14 74 15 460 13 376 -3 439 -5 447 -18z"/>
<path d="M3282 3098 c-9 -9 -12 -123 -12 -449 l0 -438 22 -15 c20 -14 80 -16
455 -16 420 0 434 1 453 20 19 19 20 33 20 453 0 323 -3 436 -12 445 -17 17
-909 17 -926 0z m916 -10 c9 -9 12 -120 12 -439 0 -385 -2 -428 -17 -440 -13
-11 -97 -14 -448 -14 -351 0 -435 3 -448 14 -15 12 -17 55 -17 440 0 319 3
430 12 439 17 17 889 17 906 0z"/>
<path d="M4266 3088 c-14 -19 -16 -78 -16 -441 l0 -418 25 -24 24 -25 441 0
441 0 24 25 25 24 0 418 c0 363 -2 422 -16 441 l-15 22 -459 0 -459 0 -15 -22z
m932 0 c9 -9 12 -120 12 -439 0 -385 -2 -428 -17 -440 -13 -11 -98 -14 -455
-14 l-440 0 -19 24 c-18 22 -19 44 -19 430 0 352 2 410 16 429 l15 22 448 0
c334 0 450 -3 459 -12z"/>
<path d="M5269 3093 c-11 -13 -14 -96 -14 -445 l0 -430 24 -19 c22 -18 45 -19
455 -19 421 0 433 1 454 20 22 21 22 21 22 450 0 376 -2 430 -16 444 -14 14
-69 16 -463 16 -405 0 -450 -2 -462 -17z m921 -12 c6 -13 10 -168 10 -435 0
-448 1 -438 -53 -451 -12 -3 -207 -4 -433 -3 -330 2 -414 6 -427 17 -15 12
-17 56 -17 440 0 319 3 430 12 439 9 9 124 12 455 12 427 0 443 -1 453 -19z"/>
<path d="M6256 3088 c-14 -19 -16 -79 -16 -444 l0 -423 26 -20 c26 -21 37 -21
459 -21 l432 0 21 23 c22 23 22 26 22 449 0 399 -1 426 -18 441 -17 15 -64 17
-465 17 l-446 0 -15 -22z m916 -5 c17 -15 18 -42 18 -434 l0 -418 -27 -21
c-26 -20 -33 -21 -449 -18 -399 3 -423 4 -443 22 -21 19 -21 25 -21 430 0 356
2 415 16 434 l15 22 436 0 c392 0 438 -2 455 -17z"/>
<path d="M7247 3092 c-15 -17 -17 -62 -17 -444 l0 -425 23 -21 c23 -22 25 -22
463 -22 429 0 441 1 462 20 22 21 22 21 22 449 0 402 -1 429 -18 444 -17 15
-64 17 -469 17 -423 0 -451 -1 -466 -18z m933 -11 c6 -13 10 -168 10 -435 l0
-415 -26 -20 c-26 -20 -37 -21 -449 -21 -412 0 -423 1 -449 21 l-26 20 0 415
c0 312 3 419 12 434 12 19 25 20 465 20 437 0 453 -1 463 -19z"/>
<path d="M3376 2128 c-14 -19 -16 -79 -16 -448 0 -369 2 -429 16 -448 l15 -22
444 0 c444 0 444 0 465 22 19 21 20 33 20 448 0 369 -2 429 -16 448 l-15 22
-449 0 -449 0 -15 -22z m918 -10 c14 -19 16 -78 16 -440 0 -405 -1 -419 -20
-438 -19 -19 -33 -20 -450 -20 -417 0 -431 1 -450 20 -19 19 -20 33 -20 438 0
362 2 421 16 440 l15 22 439 0 439 0 15 -22z"/>
<path d="M4367 2132 c-15 -17 -17 -63 -17 -454 0 -409 1 -436 18 -451 17 -15
64 -17 465 -17 434 0 448 1 467 20 19 19 20 33 20 448 0 371 -2 431 -16 450
l-15 22 -453 0 c-426 0 -454 -1 -469 -18z m927 -14 c14 -19 16 -78 16 -440 0
-405 -1 -419 -20 -438 -19 -19 -33 -20 -457 -20 -392 0 -438 2 -455 17 -17 15
-18 42 -18 444 0 375 2 429 16 443 14 14 69 16 459 16 l444 0 15 -22z"/>
<path d="M5367 2132 c-15 -17 -17 -62 -17 -448 0 -373 2 -432 16 -452 l15 -22
443 0 443 0 21 23 c22 23 22 26 22 448 0 368 -2 428 -16 447 l-15 22 -448 0
c-421 0 -449 -1 -464 -18z m917 -14 c14 -19 16 -77 16 -431 0 -406 -2 -438
-34 -459 -6 -4 -203 -8 -438 -8 -415 0 -429 1 -448 20 -19 19 -20 33 -20 444
0 373 2 426 16 440 14 14 69 16 454 16 l439 0 15 -22z"/>
<path d="M6350 2131 c-6 -13 -10 -174 -10 -454 0 -408 1 -435 18 -450 17 -15
64 -17 465 -17 434 0 448 1 467 20 19 19 20 33 20 448 0 371 -2 431 -16 450
l-15 22 -459 0 c-444 0 -460 -1 -470 -19z m935 -15 c14 -20 15 -77 13 -446 -3
-404 -4 -422 -22 -436 -16 -12 -95 -14 -455 -14 -390 0 -436 2 -453 17 -17 15
-18 42 -18 448 0 322 3 434 12 443 9 9 125 12 460 12 l448 0 15 -24z"/>
<path d="M7357 2132 c-15 -17 -17 -63 -17 -454 0 -409 1 -436 18 -451 17 -15
63 -17 460 -17 l441 0 20 26 c20 26 21 37 21 448 0 365 -2 425 -16 444 l-15
22 -448 0 c-421 0 -449 -1 -464 -18z m911 -4 c9 -9 12 -121 12 -442 0 -386 -2
-431 -17 -448 -15 -17 -42 -18 -449 -18 l-433 0 -15 22 c-14 19 -16 78 -16
441 0 269 4 425 10 438 10 18 26 19 453 19 331 0 446 -3 455 -12z"/>
<path d="M3472 1157 c-22 -23 -22 -26 -22 -443 l0 -421 23 -21 c23 -22 25 -22
464 -22 413 0 441 1 456 18 15 17 17 62 17 449 0 404 -1 431 -18 446 -17 15
-63 17 -459 17 l-440 0 -21 -23z m910 -4 c17 -15 18 -42 18 -436 0 -377 -2
-422 -17 -439 -15 -17 -42 -18 -446 -18 -387 0 -432 2 -449 17 -17 15 -18 42
-18 436 0 377 2 422 17 439 15 17 42 18 446 18 387 0 432 -2 449 -17z"/>
<path d="M4460 1160 c-19 -19 -20 -33 -20 -445 0 -412 1 -426 20 -445 19 -19
33 -20 468 -20 422 0 450 1 465 18 15 17 17 62 17 449 0 404 -1 431 -18 446
-17 15 -64 17 -465 17 -434 0 -448 -1 -467 -20z m922 -7 c17 -15 18 -42 18
-436 0 -377 -2 -422 -17 -439 -15 -17 -42 -18 -453 -18 -361 0 -440 2 -456 14
-18 14 -19 30 -19 440 0 413 1 426 20 440 17 13 83 15 454 16 390 0 436 -2
453 -17z"/>
<path d="M5462 1157 c-22 -23 -22 -26 -22 -443 0 -409 1 -421 20 -442 21 -22
21 -22 465 -22 l444 0 15 22 c14 19 16 79 16 445 0 410 -1 424 -20 443 -19 19
-33 20 -458 20 l-439 0 -21 -23z m906 -3 l22 -15 0 -424 0 -424 -22 -15 c-20
-14 -79 -16 -448 -16 -234 0 -430 4 -436 8 -32 21 -34 53 -34 450 0 389 1 400
21 426 l20 26 428 0 c370 0 430 -2 449 -16z"/>
<path d="M6450 1160 c-19 -19 -20 -33 -20 -445 0 -412 1 -426 20 -445 19 -19
33 -20 468 -20 422 0 450 1 465 18 15 17 17 62 17 449 0 404 -1 431 -18 446
-17 15 -64 17 -465 17 -434 0 -448 -1 -467 -20z m922 -7 c17 -15 18 -42 18
-436 0 -377 -2 -422 -17 -439 -15 -17 -42 -18 -455 -18 -425 0 -439 1 -458 20
-19 19 -20 33 -20 435 0 402 1 416 20 435 19 19 33 20 457 20 392 0 438 -2
455 -17z"/>
<path d="M7450 1158 c-19 -21 -20 -33 -20 -443 0 -410 1 -422 20 -443 21 -22
21 -22 465 -22 l444 0 15 22 c14 19 16 79 16 445 0 410 -1 424 -20 443 -19 19
-33 20 -460 20 -439 0 -439 0 -460 -22z m908 -4 l22 -15 0 -424 0 -424 -22
-15 c-19 -14 -79 -16 -450 -16 -415 0 -429 1 -448 20 -19 19 -20 33 -20 435 0
402 1 416 20 435 19 19 33 20 448 20 371 0 431 -2 450 -16z"/>
</g>
</svg>
